<svg xmlns="http://www.w3.org/2000/svg" viewBox="0 0 100 100">
 <g transform="translate(0 -952.36)">
  <path d="m34.258 961.34-1.9019 1.7625-2.197-1.3772-1.6683 1.988-2.3527-1.0904-1.4059 2.1806-2.4716-0.7828-1.119 2.3404-2.5536-0.4714-0.81571 2.4635-2.5905-0.1476-0.50416 2.5455-2.5864 0.1803-0.18034 2.5864-2.5454 0.5042 0.14753 2.5905-2.4634 0.8156 0.47136 2.5536-2.3404 1.119 0.78286 2.4717-2.1765 1.4059 1.0862 2.3528-1.988 1.6641 1.3772 2.2011-1.7625 1.9019 1.6395 2.0085-1.5125 2.1109 1.8814 1.7871-1.2379 2.2831 2.0904 1.5371-0.93866 2.4183 2.2626 1.2625-0.62712 2.5167 2.406 0.9714-0.30742 2.5741 2.5085 0.6641 0.0165 2.5945 2.57 0.3403 0.34428 2.57 2.5905 0.021 0.66402 2.5044 2.5741-0.3074 0.97144 2.406 2.5167-0.6271 1.2624 2.2626 2.4183-0.9387 1.5412 2.0905 2.279-1.2338 1.7871 1.8773 2.1109-1.5084 2.0085 1.6396 1.9019-1.7626 2.2011 1.3731 1.6642-1.9879 2.3568 1.0903 1.4018-2.1806 2.4716 0.7829 1.1231-2.3364 2.5495 0.4673 0.746-2.2339-3.6726-3.6726c-4.003 2.4747-8.72 3.9021-13.772 3.9021-14.488 0-26.233-11.745-26.233-26.233s11.745-26.233 26.233-26.233 26.233 11.745 26.233 26.233c0 5.0423-1.4243 9.7496-3.8899 13.748l3.6849 3.6849 2.2093-0.7337-0.46727-2.5495 2.3364-1.1231-0.78286-2.4716 2.1806-1.4019-1.0903-2.3568 1.988-1.6642-1.3731-2.2011 1.7625-1.9019-1.6396-2.0084 1.5084-2.1109-1.8773-1.7872 1.2338-2.2789-2.0904-1.5412 0.93863-2.4184-2.2626-1.2624 0.62713-2.5167-2.402-0.9715 0.30742-2.5741-2.5085-0.664-0.01647-2.5946-2.5741-0.3402-0.3402-2.57-2.5946-0.021-0.6599-2.5044-2.5782 0.3074-0.97144-2.4061-2.5167 0.6271-1.2625-2.2625-2.4183 0.9386-1.5371-2.0904-2.2831 1.2337-1.7871-1.8772-2.1109 1.5124-2.0084-1.6395zm-12.678 12.362c-2.6536 1.7821-4.9401 4.0687-6.7222 6.7222 5.6453 5.344 9.0176 10.375 9.0176 13.707s-3.3733 8.3674-9.0176 13.711c1.7811 2.652 4.0706 4.9365 6.7222 6.7181 5.3428-5.643 10.376-9.0135 13.707-9.0135 2.8968 1e-4 7.0848 2.5513 11.641 6.9272l17.494 17.494h13.444l-24.917-24.921c-3.9567-4.2731-6.2426-8.1734-6.2426-10.915 0-3.3322 3.3716-8.3623 9.0176-13.707-1.7821-2.6535-4.0686-4.9401-6.7222-6.7222-5.3443 5.646-10.383 9.0176-13.715 9.0176s-8.3631-3.3728-13.707-9.0176zm13.707 13.871c3.6143 0 6.5582 2.944 6.5582 6.5582s-2.944 6.5583-6.5582 6.5583-6.5582-2.944-6.5582-6.5583 2.944-6.5582 6.5582-6.5582zm0 1.1969c-2.97 0-5.3614 2.3914-5.3614 5.3613s2.3914 5.3614 5.3614 5.3614 5.3696-2.3914 5.3695-5.3614-2.3996-5.3613-5.3695-5.3613zm24.479 42.51c-2.1799 0-3.9349 1.755-3.9349 3.9349v4.2383c0 2.1799 1.755 3.9349 3.9349 3.9349h33.799c2.1799 0 3.9349-1.755 3.9349-3.9349v-4.2383c0-2.1799-1.755-3.9349-3.9349-3.9349h-33.799zm16.9 0.9919c2.7799 0 5.0621 2.2823 5.0621 5.0621s-2.2823 5.0622-5.0621 5.0622-5.0621-2.2823-5.0621-5.0622 2.2823-5.0621 5.0621-5.0621zm0 2.5331c-1.4124 0-2.529 1.1166-2.529 2.529s1.1166 2.5291 2.529 2.5291 2.529-1.1166 2.529-2.5291-1.1166-2.529-2.529-2.529zm-9.8824 0.5616c1.0866 0 1.9675 0.8808 1.9675 1.9674s-0.88087 1.9675-1.9675 1.9675-1.9674-0.8809-1.9674-1.9675 0.88087-1.9674 1.9674-1.9674zm19.765 0c1.0866 0 1.9674 0.8808 1.9674 1.9674s-0.88087 1.9675-1.9674 1.9675-1.9675-0.8809-1.9675-1.9675 0.88087-1.9674 1.9675-1.9674zm-25.241 0.6558c0.72441 0 1.3117 0.5873 1.3117 1.3116s-0.58726 1.3117-1.3117 1.3117-1.3116-0.5873-1.3116-1.3117 0.58723-1.3116 1.3116-1.3116zm30.717 0c0.72441 0 1.3116 0.5873 1.3116 1.3116s-0.58723 1.3117-1.3116 1.3117-1.3117-0.5873-1.3117-1.3117 0.58726-1.3116 1.3117-1.3116z" fill-rule="evenodd" fill="#e8df00"/>
 </g>
</svg>